<?xml version="1.0" encoding="UTF-8"?>
<svg version="1.1" xmlns="http://www.w3.org/2000/svg" width="512" height="512">
<path d="M0 0 C0.78600838 -0.00436032 1.57201675 -0.00872064 2.38184357 -0.0132131 C5.01373133 -0.02415507 7.64509366 -0.01375235 10.27697754 -0.00342751 C12.18369057 -0.00688448 14.09040161 -0.01164932 15.99710846 -0.01760924 C21.23536017 -0.03014333 26.47344811 -0.02393784 31.71170044 -0.01465058 C37.3614005 -0.00787033 43.01107216 -0.01833625 48.6607666 -0.02659035 C59.72802875 -0.03994079 70.79522992 -0.03704409 81.86249447 -0.02835242 C90.8558852 -0.02158145 99.84925882 -0.02065662 108.84265137 -0.02392387 C110.12189877 -0.02438357 111.40114617 -0.02484327 112.71915865 -0.0253169 C115.3178018 -0.02627606 117.91644494 -0.0272487 120.51508808 -0.02823468 C144.19615681 -0.03654838 167.87718626 -0.02792197 191.55824864 -0.01220688 C213.17609797 0.00202993 234.79389429 0.00075605 256.41174316 -0.01358986 C280.6997861 -0.02965387 304.98779152 -0.0359684 329.27584076 -0.02675307 C331.86500549 -0.02579741 334.45417022 -0.02485429 337.04333496 -0.02392387 C338.31730401 -0.02346105 339.59127305 -0.02299822 340.90384722 -0.02252137 C349.88801313 -0.01992945 358.87216024 -0.02430683 367.85632324 -0.03136253 C378.80274596 -0.03977019 389.74910414 -0.03751282 400.69551945 -0.0215203 C406.28215654 -0.01362774 411.86868594 -0.01056283 417.45532227 -0.02046776 C422.56758645 -0.02939466 427.67964294 -0.02451479 432.79188824 -0.0085351 C434.64306781 -0.00517881 436.49426486 -0.00690035 438.34543324 -0.01416247 C440.85920135 -0.0232689 443.37225559 -0.01394473 445.88598633 0 C446.60680389 -0.0070235 447.32762146 -0.014047 448.07028198 -0.02128333 C453.13167216 0.03493552 456.52840613 1.06728213 460.94299316 3.37752342 C464.96050001 8.5651131 464.39387265 14.63325198 464.37658691 20.90877342 C464.38182877 22.01805199 464.38707062 23.12733055 464.39247131 24.27022362 C464.39888066 26.61018094 464.39756865 28.95017053 464.38903809 31.29012108 C464.38052201 34.86541222 464.40931681 38.43910845 464.44104004 42.01424217 C464.44265207 44.29158544 464.44207449 46.56893154 464.43908691 48.84627342 C464.45032089 49.91204613 464.46155487 50.97781883 464.47312927 52.07588768 C464.41646696 58.12351728 464.11859279 61.85322976 459.94299316 66.37752342 C456.40730062 69.12195321 452.14831117 68.70073401 447.85314941 68.71346092 C446.68084023 68.72344612 446.68084023 68.72344612 445.48484802 68.73363304 C443.83493395 68.74373974 442.18497917 68.74845067 440.53503418 68.74812889 C438.01733808 68.75250284 435.50139502 68.78884233 432.98400879 68.82674217 C431.37789497 68.83261074 429.77177285 68.83657986 428.16564941 68.83846092 C427.416548 68.85283195 426.66744659 68.86720299 425.89564514 68.88200951 C422.19129765 68.84979022 420.11978201 68.49075541 416.97058105 66.47371483 C414.94299316 64.37752342 414.94299316 64.37752342 414.27893066 62.37752342 C414.2982666 61.38752342 414.2982666 61.38752342 414.31799316 60.37752342 C414.30510254 59.71752342 414.29221191 59.05752342 414.27893066 58.37752342 C415.32016228 55.2415788 417.22758033 54.17348634 419.94299316 52.37752342 C423.08093262 51.92342186 423.08093262 51.92342186 426.55627441 51.98689842 C428.24297241 52.00188377 428.24297241 52.00188377 429.96374512 52.01717186 C431.38002197 52.05358788 432.79629883 52.09000389 434.25549316 52.12752342 C438.77236816 52.21002342 443.28924316 52.29252342 447.94299316 52.37752342 C447.94299316 40.49752342 447.94299316 28.61752342 447.94299316 16.37752342 C402.07299316 16.37752342 356.20299316 16.37752342 308.94299316 16.37752342 C308.94299316 28.25752342 308.94299316 40.13752342 308.94299316 52.37752342 C317.75244629 52.30791405 317.75244629 52.30791405 326.73986816 52.23689842 C330.45863582 52.21646228 334.17733433 52.19720672 337.89611816 52.18221092 C343.7999101 52.15829148 349.7034541 52.12998311 355.60705566 52.07576561 C360.3662513 52.03233121 365.1251811 52.00839124 369.88455963 51.99801445 C371.70108476 51.99061875 373.51759519 51.97617673 375.33400726 51.9546032 C377.87684161 51.92560076 380.41857495 51.92156603 382.96154785 51.92342186 C383.71392731 51.90904076 384.46630676 51.89465965 385.2414856 51.87984276 C388.69676239 51.90716195 390.59035019 52.11093094 393.38323975 54.22231102 C395.41784633 57.03365882 395.872257 58.91145126 395.94299316 62.37752342 C393.81255838 66.94274081 393.81255838 66.94274081 390.94299316 68.37752342 C388.77987637 68.47565276 386.61363877 68.50672911 384.44829845 68.50895119 C383.7704509 68.51100382 383.09260335 68.51305645 382.39421496 68.51517129 C380.10033177 68.52087024 377.80650808 68.51938049 375.51261902 68.51796532 C373.86041072 68.5205473 372.20820304 68.52355998 370.55599624 68.52696872 C365.99813379 68.53506163 361.44028706 68.53682956 356.88241827 68.53756618 C351.9736505 68.53941277 347.06489096 68.54695808 342.15612793 68.5537014 C331.41451879 68.56730143 320.67291338 68.57331202 309.93129706 68.57771206 C303.22851275 68.58047162 296.52572988 68.58470844 289.82294655 68.58921623 C271.27732146 68.60141101 252.73169754 68.61170996 234.18606853 68.61509132 C232.99838448 68.61531089 231.81070042 68.61553046 230.58702593 68.61575668 C229.39644528 68.61597495 228.20586464 68.61619323 226.97920579 68.61641812 C224.56650015 68.61686159 222.15379451 68.61730816 219.74108887 68.6177578 C217.94589791 68.61808994 217.94589791 68.61808994 216.11444048 68.6184288 C196.71511548 68.62237815 177.31582801 68.63983544 157.91651752 68.66311732 C138.01578017 68.68680887 118.11506167 68.69929217 98.21430999 68.70045924 C87.03421188 68.70137723 75.85416266 68.70716068 64.67407799 68.72527885 C55.15516313 68.74065023 45.63631228 68.74581787 36.11738738 68.73754075 C31.25809142 68.73362373 26.39892447 68.73461493 21.53964424 68.7485981 C17.094054 68.76127417 12.64869054 68.76019526 8.2031009 68.74800739 C6.59204389 68.74603941 4.98097117 68.7491792 3.36993631 68.75785175 C1.1847501 68.76887334 -0.9996257 68.7615074 -3.1847887 68.74946022 C-4.39994878 68.75005731 -5.61510885 68.7506544 -6.86709195 68.75126958 C-11.27450969 68.23487478 -13.89060525 66.66483443 -16.84460449 63.40462303 C-18.74531555 58.65896931 -18.48416317 54.00856443 -18.45544434 48.94392967 C-18.45831451 47.83323616 -18.46118469 46.72254265 -18.46414185 45.57819176 C-18.46618084 43.23224438 -18.46066254 40.88627995 -18.44812012 38.54036522 C-18.43208013 34.95639921 -18.44796741 31.37356355 -18.46716309 27.7896328 C-18.46518033 25.50772927 -18.46133598 23.22582645 -18.45544434 20.94392967 C-18.46151703 19.87501991 -18.46758972 18.80611015 -18.47384644 17.70480919 C-18.37926742 7.65863404 -18.37926742 7.65863404 -15.05700684 3.37752342 C-9.96507345 0.71315516 -5.75302084 -0.05605625 0 0 Z M-2.05700684 16.37752342 C-2.05700684 28.25752342 -2.05700684 40.13752342 -2.05700684 52.37752342 C43.81299316 52.37752342 89.68299316 52.37752342 136.94299316 52.37752342 C136.94299316 40.49752342 136.94299316 28.61752342 136.94299316 16.37752342 C91.07299316 16.37752342 45.20299316 16.37752342 -2.05700684 16.37752342 Z M152.94299316 16.37752342 C152.94299316 28.25752342 152.94299316 40.13752342 152.94299316 52.37752342 C199.14299316 52.37752342 245.34299316 52.37752342 292.94299316 52.37752342 C292.94299316 40.49752342 292.94299316 28.61752342 292.94299316 16.37752342 C246.74299316 16.37752342 200.54299316 16.37752342 152.94299316 16.37752342 Z " fill="#000000" transform="translate(33.0570068359375,363.6224765777588)"/>
<path d="M0 0 C0.6852211 -0.00523668 1.3704422 -0.01047336 2.07642758 -0.01586872 C4.3717404 -0.0308666 6.66683026 -0.03157381 8.96218872 -0.03224182 C10.60819881 -0.03986342 12.25420534 -0.04829092 13.90020752 -0.0574646 C18.37131217 -0.0794155 22.84234843 -0.0882092 27.31350088 -0.09329104 C30.10696951 -0.09693368 32.9004202 -0.10317324 35.69388199 -0.11029243 C45.43957558 -0.13478823 55.18521592 -0.14783927 64.93093872 -0.15138245 C74.01510118 -0.15501862 83.09892596 -0.18491949 92.18298519 -0.22678703 C99.98268222 -0.26147481 107.78226725 -0.27693062 115.58204091 -0.27762848 C120.24029939 -0.27842176 124.89821388 -0.28718395 129.55639267 -0.31562614 C133.93796159 -0.34178124 138.31890065 -0.34402655 142.70051193 -0.3279705 C144.30734123 -0.326154 145.91420653 -0.332865 147.52095795 -0.34878922 C149.71767938 -0.36923091 151.91219296 -0.35871307 154.10888672 -0.34057617 C155.33705046 -0.3425875 156.5652142 -0.34459883 157.83059502 -0.3466711 C162.19153885 0.46130325 164.12209365 2.11092685 167.181427 5.27415466 C169.3856908 9.15262649 169.43451019 12.61138155 169.44212341 17.02316284 C169.44594896 17.68882061 169.44977451 18.35447837 169.45371598 19.04030758 C169.4640075 21.26343862 169.46006125 23.48630953 169.45608521 25.7094574 C169.4604338 27.30635313 169.46561745 28.90324678 169.47157288 30.50013733 C169.48495791 34.8327741 169.48554212 39.16532361 169.48300958 43.49797702 C169.48193958 47.11630742 169.48682396 50.73462019 169.491615 54.35294682 C169.50270837 62.88960309 169.50314848 71.42621537 169.49710083 79.96287537 C169.49105963 88.7669317 169.50337614 97.57082828 169.5246709 106.37485737 C169.54228818 113.93678316 169.54828808 121.49865811 169.54503316 129.06060368 C169.54322043 133.57566838 169.54585546 138.0906191 169.5597477 142.60566521 C169.57232356 146.85170782 169.57038428 151.0975014 169.55733681 155.34354019 C169.55497098 156.90036796 169.55770595 158.45721324 169.56595993 160.01402092 C169.576429 162.14235662 169.56832645 164.26985689 169.5556488 166.39816284 C169.55581655 167.58815604 169.55598429 168.77814924 169.55615711 170.00420284 C168.98901921 174.95313428 167.36665676 178.04144426 163.92802429 181.61782932 C160.46990308 183.70323653 158.26317968 183.77467363 154.23587036 183.77536011 C153.54908927 183.7808945 152.86230818 183.7864289 152.15471554 183.79213101 C149.85986271 183.80571398 147.56610198 183.79078235 145.27127075 183.77586365 C143.62348977 183.77964771 141.97571197 183.78514847 140.32794189 183.79223633 C135.85683516 183.80619696 131.38611299 183.79501697 126.91502762 183.77852511 C122.2355138 183.76467335 117.55602228 183.77113484 112.87649536 183.7746582 C105.01811527 183.77736022 97.15988793 183.76388541 89.30154419 183.7407074 C80.21684331 183.7140977 71.13239782 183.71235059 62.04767132 183.72409576 C53.3076469 183.73487587 44.56771484 183.72868464 35.82769775 183.71454048 C32.10849829 183.7087827 28.38936647 183.70886173 24.67016602 183.71360588 C20.29031343 183.71837905 15.91074042 183.70825994 11.53094101 183.68665123 C9.92371437 183.68108782 8.31646085 183.68061399 6.70923233 183.6856041 C4.51483946 183.69156268 2.32129969 183.67904191 0.12698364 183.66183472 C-1.10080307 183.65940482 -2.32858978 183.65697493 -3.59358215 183.6544714 C-7.1300642 183.23742113 -8.98998524 182.39922786 -11.818573 180.27415466 C-15.38506341 175.15825407 -15.251807 170.29533309 -15.22262573 164.29319763 C-15.22948898 163.30388245 -15.23635223 162.31456726 -15.24342346 161.29527283 C-15.26167852 158.03548204 -15.25785686 154.77617293 -15.25216675 151.51634216 C-15.25672804 149.24763329 -15.26203345 146.97892581 -15.26805115 144.71022034 C-15.27697887 139.960804 -15.27456154 135.21155587 -15.26461792 130.46214294 C-15.2531086 124.3709616 -15.27337196 118.28035827 -15.30253506 112.18925285 C-15.3208608 107.50699672 -15.32061216 102.82488018 -15.31489754 98.1425972 C-15.31474399 95.89627901 -15.32081604 93.64995156 -15.33318901 91.40366745 C-15.34803429 88.26751369 -15.33747028 85.13244206 -15.32028198 81.99632263 C-15.32994995 81.06635468 -15.33961792 80.13638672 -15.34957886 79.17823792 C-15.27729382 72.89310375 -15.27729382 72.89310375 -12.91221619 69.70191956 C-10.66393837 68.16870122 -9.51684459 67.7063846 -6.818573 67.71165466 C-6.158573 67.6897406 -5.498573 67.66782654 -4.818573 67.64524841 C-1.57461716 68.66532046 -0.60801983 70.42037859 1.181427 73.27415466 C1.74686603 76.34359678 1.68747265 79.3573288 1.63552856 82.47068787 C1.6360107 83.40303599 1.63649284 84.33538412 1.63698959 85.29598522 C1.6340103 88.30602738 1.60357988 91.31507163 1.572052 94.32493591 C1.5661689 96.18638126 1.56208939 98.04783321 1.55984497 99.9092865 C1.53889624 106.80184364 1.48305116 113.69425902 1.431427 120.58665466 C1.348927 135.99352966 1.266427 151.40040466 1.181427 167.27415466 C51.341427 167.27415466 101.501427 167.27415466 153.181427 167.27415466 C153.181427 117.11415466 153.181427 66.95415466 153.181427 15.27415466 C103.021427 15.27415466 52.861427 15.27415466 1.181427 15.27415466 C1.181427 24.51415466 1.181427 33.75415466 1.181427 43.27415466 C-2.818573 48.27415466 -2.818573 48.27415466 -5.193573 49.27415466 C-8.72597301 49.27415466 -10.83746629 48.10347014 -13.818573 46.27415466 C-15.37666964 43.15796138 -15.02351178 39.83757644 -15.05685425 36.41477966 C-15.06492599 35.63278198 -15.07299774 34.8507843 -15.08131409 34.04508972 C-15.0951552 32.38741777 -15.10587724 30.72971732 -15.11373901 29.07200623 C-15.13091291 26.54768587 -15.17479165 24.0246888 -15.21896362 21.50071716 C-15.2290943 19.88874761 -15.23760923 18.27676694 -15.24435425 16.66477966 C-15.26186234 15.91456543 -15.27937042 15.1643512 -15.29740906 14.3914032 C-15.27611697 9.19613276 -14.18935943 6.21679407 -10.818573 2.27415466 C-7.30542138 -0.07519636 -4.15622163 0.01574742 0 0 Z " fill="#000000" transform="translate(327.8185729980469,-0.2741546630859375)"/>
<path d="M0 0 C7.64850066 3.55108959 11.52709227 10.40156433 14.77734375 17.8203125 C15.11117569 18.5602243 15.44500763 19.30013611 15.78895569 20.06246948 C16.84746083 22.41273513 17.89302914 24.76846857 18.9375 27.125 C20.31776151 30.21267231 21.70319605 33.29800371 23.08984375 36.3828125 C23.58827286 37.49502167 23.58827286 37.49502167 24.09677124 38.62969971 C26.89451372 44.84247217 29.87805543 50.94276092 33 57 C33.61875 55.96875 34.2375 54.9375 34.875 53.875 C38.73775771 48.41385979 44.7308766 45.0897078 51 43 C60.847496 41.96411161 68.89098637 43.04639948 77 49 C82.81968372 54.51179589 86.5312584 61.62655389 90.5 68.5 C91.90429781 70.91596685 93.3128536 73.3294295 94.72265625 75.7421875 C95.07662979 76.34928558 95.43060333 76.95638367 95.79530334 77.58187866 C98.1637558 81.62630131 100.61413933 85.60955346 103.12109375 89.5703125 C104.08595703 91.10461914 104.08595703 91.10461914 105.0703125 92.66992188 C106.28251237 94.588393 107.50711361 96.49910469 108.74609375 98.40039062 C112.1478843 103.81998853 114.3436396 108.48533365 114 115 C112.45750389 120.22734793 110.5700875 123.02944312 106 126 C102.64268847 127.11910384 100.1067276 127.13431729 96.56742859 127.14717102 C95.91164678 127.15084771 95.25586497 127.1545244 94.58021098 127.1583125 C92.37858001 127.16934242 90.17699625 127.17319197 87.9753418 127.17700195 C86.39844615 127.18326707 84.82155198 127.18991391 83.24465942 127.19691467 C78.06285631 127.21794959 72.88105292 127.22831567 67.69921875 127.23828125 C65.91537778 127.24232884 64.13153696 127.24644577 62.3476963 127.25063133 C53.96810589 127.26968076 45.58852427 127.28391302 37.20891637 127.2922433 C27.53506656 127.30201899 17.86144537 127.32834814 8.18767613 127.36874419 C0.71072402 127.3988958 -6.76616252 127.41371122 -14.24317425 127.41702431 C-18.70914329 127.41937567 -23.17486802 127.42834721 -27.64077187 127.45348549 C-31.84250101 127.47675497 -36.04382479 127.4810041 -40.24560165 127.47072411 C-41.78631501 127.47022838 -43.32704824 127.47655982 -44.86770058 127.49028015 C-46.97444457 127.50798973 -49.07973219 127.50089961 -51.18647766 127.48774719 C-52.36431981 127.49013555 -53.54216196 127.4925239 -54.7556963 127.49498463 C-59.74386868 126.7339373 -63.79426353 123.88062836 -67 120 C-69.55909182 112.32272455 -68.01704975 105.55117867 -64.51953125 98.51171875 C-64.15536606 97.73915237 -63.79120087 96.966586 -63.41600037 96.17060852 C-62.2319599 93.66767292 -61.02226518 91.17808783 -59.8125 88.6875 C-58.97991759 86.93658124 -58.14953631 85.18461423 -57.32128906 83.43164062 C-55.66093144 79.91923826 -53.99333434 76.41042749 -52.32080078 72.90380859 C-49.18998962 66.31616316 -46.21124614 59.66537841 -43.25 53 C-42.74033691 51.86506104 -42.23067383 50.73012207 -41.70556641 49.56079102 C-39.19527916 43.96717307 -36.71764888 38.36190204 -34.29971313 32.72784424 C-33.07319548 29.87818288 -31.83062993 27.03566331 -30.58605957 24.19384766 C-29.99679216 22.83711569 -29.41489094 21.47715537 -28.84118652 20.11376953 C-22.68186534 5.48640995 -16.41421801 -1.42123107 0 0 Z M-7 15 C-10.34674099 20.1278294 -13.23425858 25.27576641 -15.75 30.85546875 C-16.08507568 31.5868808 -16.42015137 32.31829285 -16.76538086 33.0718689 C-17.84906585 35.44128978 -18.92469339 37.81426658 -20 40.1875 C-20.75613142 41.84579461 -21.51264636 43.50391439 -22.26953125 45.16186523 C-27.93630379 57.59097125 -33.54269989 70.04746268 -39.10546875 82.5234375 C-40.98781636 86.74445942 -42.8852818 90.95798177 -44.80078125 95.1640625 C-45.44176758 96.57449829 -45.44176758 96.57449829 -46.09570312 98.01342773 C-46.88175283 99.74087605 -47.67061884 101.46704688 -48.46289062 103.19165039 C-50.32723829 106.9431429 -50.32723829 106.9431429 -51 111 C-21.63 111 7.74 111 38 111 C35.49966847 103.44234523 35.49966847 103.44234523 32.42578125 96.26171875 C31.93118408 95.21250244 31.43658691 94.16328613 30.92700195 93.08227539 C30.39421631 91.96199951 29.86143066 90.84172363 29.3125 89.6875 C28.14121902 87.20267256 26.97568518 84.71518907 25.8125 82.2265625 C25.50681595 81.57267044 25.2011319 80.91877838 24.88618469 80.24507141 C21.43839967 72.83971452 18.141188 65.36833924 14.8427124 57.89559937 C10.0396824 47.01828298 5.23642657 36.14099474 0.1875 25.375 C-0.20268311 24.52881104 -0.59286621 23.68262207 -0.99487305 22.81079102 C-1.35363525 22.05596436 -1.71239746 21.3011377 -2.08203125 20.5234375 C-2.53412964 19.5631665 -2.53412964 19.5631665 -2.99536133 18.58349609 C-4.06187057 16.66595345 -4.06187057 16.66595345 -7 15 Z M46.0390625 65.7265625 C42.19012603 71.3032426 42.19012603 71.3032426 41.22607422 77.74511719 C42.10828491 81.4554115 43.51428407 84.73085989 45.16015625 88.1484375 C45.43436401 88.73214111 45.70857178 89.31584473 45.99108887 89.91723633 C47.00676442 92.07367131 48.03537781 94.22399357 49.0625 96.375 C52.4965625 103.614375 52.4965625 103.614375 56 111 C69.2 111 82.4 111 96 111 C94.27645248 106.6911312 92.29338904 102.89095144 89.9296875 98.93359375 C89.52976593 98.25885513 89.12984436 97.58411652 88.71780396 96.88893127 C87.87058408 95.46161726 87.02157633 94.03536317 86.17089844 92.61010742 C84.89531383 90.47155666 83.62692675 88.32886614 82.359375 86.18554688 C78.56333912 79.78721752 74.71103209 73.42328302 70.6953125 67.16015625 C69.80223389 65.76422241 69.80223389 65.76422241 68.89111328 64.34008789 C65.71308601 60.40755608 63.06206023 59.11800669 58.0625 58.5625 C52.17983555 58.88197054 49.3827093 61.07742811 46.0390625 65.7265625 Z " fill="#000000" transform="translate(145,38)"/>
<path d="M0 0 C0.69334946 -0.00861557 1.38669891 -0.01723114 2.10105896 -0.02610779 C4.38294278 -0.0487285 6.66359446 -0.04203666 8.94555664 -0.03295898 C10.53829817 -0.03819664 12.13103659 -0.04447365 13.72377014 -0.05174255 C17.05850847 -0.06213971 20.39281991 -0.05759591 23.72753906 -0.04296875 C27.99271974 -0.02578807 32.25655235 -0.04926936 36.5215826 -0.08445835 C39.80999104 -0.1064622 43.09807845 -0.10498368 46.38653755 -0.09669304 C47.95855754 -0.09587502 49.53060145 -0.10270997 51.10255241 -0.11746407 C53.30487776 -0.13496571 55.50480076 -0.12032578 57.70703125 -0.09765625 C58.95769882 -0.09669449 60.20836639 -0.09573273 61.49693298 -0.09474182 C66.08421108 0.74753888 67.65519676 2.22619518 70.91821289 5.53344727 C72.92100008 8.49877593 73.17671582 10.8470927 73.20874023 14.39038086 C73.22149994 15.35172943 73.23425964 16.313078 73.24740601 17.30355835 C73.24963165 18.33590607 73.2518573 19.36825378 73.25415039 20.43188477 C73.26413559 22.03345932 73.26413559 22.03345932 73.27432251 23.66738892 C73.28444341 25.92513304 73.2891397 28.18290704 73.28881836 30.44067383 C73.29318795 33.88876845 73.32950509 37.33557937 73.36743164 40.78344727 C73.37330065 42.9787554 73.37726948 45.1740696 73.37915039 47.36938477 C73.39352142 48.39768402 73.40789246 49.42598328 73.42269897 50.48544312 C73.38546792 56.34034683 72.9826113 59.97763994 68.91821289 64.53344727 C65.41843808 67.88731839 62.69538879 67.91257651 57.93408203 67.92163086 C56.89186745 67.9295163 56.89186745 67.9295163 55.82859802 67.93756104 C53.53662492 67.95074183 51.24534906 67.94202931 48.95336914 67.93188477 C47.35680508 67.9339063 45.76024193 67.93681839 44.16368103 67.94058228 C40.81882937 67.9450032 37.47421821 67.93858303 34.12939453 67.92456055 C29.84757584 67.90748247 25.56632187 67.91730227 21.28452396 67.93527794 C17.98762277 67.94613397 14.69085478 67.94266089 11.39394951 67.93489456 C9.81553518 67.93289686 8.23710866 67.93533673 6.65870857 67.94233322 C4.44939417 67.94997634 2.24098546 67.93830406 0.03173828 67.92163086 C-1.8521183 67.91805069 -1.8521183 67.91805069 -3.77403259 67.91439819 C-7.35936677 67.50147868 -9.21902571 66.68862636 -12.08178711 64.53344727 C-15.89829794 59.21316236 -15.51746869 53.6919046 -15.48022461 47.40454102 C-15.48452988 45.80365379 -15.48452988 45.80365379 -15.48892212 44.17042542 C-15.49095852 41.92041491 -15.4854584 39.67038654 -15.47290039 37.42041016 C-15.45682552 33.97917097 -15.47277231 30.53910346 -15.49194336 27.09790039 C-15.48996116 24.90844468 -15.48611798 22.71898969 -15.48022461 20.52954102 C-15.4862973 19.50235458 -15.49237 18.47516815 -15.49862671 17.41685486 C-15.40966358 8.37354947 -15.40966358 8.37354947 -12.08178711 4.53344727 C-8.08038146 0.66768773 -5.51910229 0.02737127 0 0 Z M0.91821289 16.53344727 C0.91821289 28.41344727 0.91821289 40.29344727 0.91821289 52.53344727 C19.39821289 52.53344727 37.87821289 52.53344727 56.91821289 52.53344727 C56.91821289 40.65344727 56.91821289 28.77344727 56.91821289 16.53344727 C38.43821289 16.53344727 19.95821289 16.53344727 0.91821289 16.53344727 Z " fill="#000000" transform="translate(296.081787109375,271.466552734375)"/>
<path d="M0 0 C0.69159714 -0.01007584 1.38319427 -0.02015167 2.0957489 -0.03053284 C4.37804414 -0.05898684 6.65967718 -0.06488828 8.94213867 -0.06811523 C10.53391285 -0.07775962 12.12568438 -0.08785234 13.717453 -0.09837341 C17.0538855 -0.11632936 20.3900851 -0.12189517 23.7265625 -0.12011719 C27.99067243 -0.11981269 32.25327946 -0.16073274 36.51703358 -0.21243382 C39.80546346 -0.24588551 43.09353375 -0.25187207 46.38211632 -0.25028801 C47.95334736 -0.25381603 49.52458891 -0.26701802 51.09565163 -0.29028511 C64.90287743 -0.47559324 64.90287743 -0.47559324 69.50341797 3.29150391 C72.65642458 6.60351389 73.17268889 9.71385722 73.20874023 14.17919922 C73.21834778 15.14062332 73.22795532 16.10204742 73.237854 17.09260559 C73.24210388 18.13011459 73.24635376 19.1676236 73.25073242 20.23657227 C73.2564325 21.30570358 73.26213257 22.3748349 73.26800537 23.47636414 C73.27745558 25.74009206 73.28398943 28.00383375 73.2878418 30.26757812 C73.29754007 33.7242851 73.32856085 37.18039567 73.36010742 40.63696289 C73.36663834 42.83682915 73.37188846 45.03669967 73.37573242 47.23657227 C73.38807922 48.26800858 73.40042603 49.29944489 73.41314697 50.36213684 C73.39650241 55.74679146 73.30921572 59.90819879 70.04760742 64.43579102 C66.00394026 67.47261569 62.96592259 67.82203199 57.96582031 67.85571289 C57.27247086 67.86418243 56.5791214 67.87265198 55.86476135 67.88137817 C53.58307323 67.90469096 51.30206166 67.9057718 49.02026367 67.90454102 C47.42752312 67.91164587 45.83478512 67.91934535 44.24205017 67.9276123 C40.90738811 67.94104377 37.57296275 67.94263186 34.23828125 67.93676758 C29.97314728 67.93087131 25.70915156 67.96146485 21.44423771 68.00188446 C18.15585757 68.02778254 14.86775082 68.03063705 11.57928276 68.0269928 C10.0072487 68.02868196 8.43520173 68.03830499 6.8632679 68.05613708 C4.66100832 68.07837217 2.4610434 68.06860603 0.25878906 68.05102539 C-1.6172123 68.05410706 -1.6172123 68.05410706 -3.53111267 68.05725098 C-8.12224961 67.2232918 -9.68851031 65.74513146 -12.95239258 62.43579102 C-14.95517977 59.47046235 -15.2108955 57.12214558 -15.24291992 53.57885742 C-15.25567963 52.61750885 -15.26843933 51.65616028 -15.28158569 50.66567993 C-15.28381134 49.63333221 -15.28603699 48.6009845 -15.28833008 47.53735352 C-15.29498688 46.46963715 -15.30164368 45.40192078 -15.3085022 44.30184937 C-15.3186231 42.04410524 -15.32331939 39.78633124 -15.32299805 37.52856445 C-15.32736764 34.08046983 -15.36368478 30.63365892 -15.40161133 27.18579102 C-15.40748033 24.99048289 -15.41144916 22.79516869 -15.41333008 20.59985352 C-15.42770111 19.57155426 -15.44207214 18.543255 -15.45687866 17.48379517 C-15.4196476 11.62889145 -15.01679099 7.99159834 -10.95239258 3.43579102 C-7.46344137 0.10227499 -4.74300835 0.04342262 0 0 Z M1.04760742 16.43579102 C1.04760742 28.31579102 1.04760742 40.19579102 1.04760742 52.43579102 C19.52760742 52.43579102 38.00760742 52.43579102 57.04760742 52.43579102 C57.04760742 40.55579102 57.04760742 28.67579102 57.04760742 16.43579102 C38.56760742 16.43579102 20.08760742 16.43579102 1.04760742 16.43579102 Z " fill="#000000" transform="translate(157.952392578125,271.564208984375)"/>
<path d="M0 0 C2.05938216 1.57885966 2.84571211 2.69142423 4 5 C4 7.31 4 9.62 4 12 C53.5 12 103 12 154 12 C154 9.36 154 6.72 154 4 C156 0.9375 156 0.9375 159 -1 C161.89968444 -1.36669161 164.34508837 -1.25525111 167 0 C171.20169485 5.58203969 170.48643472 11.69123353 170.44604492 18.34716797 C170.43752328 20.49413601 170.46634031 22.63844987 170.49804688 24.78515625 C170.49965896 26.15885338 170.49908121 27.53255518 170.49609375 28.90625 C170.49794678 30.14697266 170.4997998 31.38769531 170.50170898 32.66601562 C169.91071389 36.593329 168.80643917 38.23716774 166 41 C162.3102058 42.25610015 160.73613171 42.34352813 157.1875 40.6875 C155 39 155 39 154 37 C154 34.03 154 31.06 154 28 C104.5 28 55 28 4 28 C4 30.64 4 33.28 4 36 C2.05083741 39.52348621 0.87663766 40.70157016 -2.9375 42 C-6.57241294 42 -8.14864833 41.19961414 -11 39 C-13.29569385 34.4086123 -12.31156179 27.64275403 -12.35009766 22.54248047 C-12.36666385 20.93426041 -12.39396321 19.32611419 -12.43212891 17.71826172 C-12.48691474 15.39772427 -12.50877027 13.07890961 -12.5234375 10.7578125 C-12.54610687 10.04102325 -12.56877625 9.32423401 -12.59213257 8.58572388 C-12.57631022 4.84421421 -12.27360312 3.29526891 -9.69384766 0.51123047 C-6.02331665 -1.54791281 -3.99422561 -1.10950711 0 0 Z " fill="#000000" transform="translate(89,188)"/>
<path d="M0 0 C1.22154282 -0.01591187 2.44308563 -0.03182373 3.7016449 -0.04821777 C5.01319046 -0.04841919 6.32473602 -0.04862061 7.67602539 -0.04882812 C9.0445639 -0.0559352 10.41309946 -0.063635 11.78163147 -0.07189941 C14.64552093 -0.08532262 17.50913482 -0.0869228 20.37304688 -0.08105469 C24.03291425 -0.07515905 27.69145481 -0.10575161 31.35106564 -0.14617157 C34.17622429 -0.17209227 37.00106521 -0.17492218 39.82632637 -0.17127991 C41.82821567 -0.17378396 43.83003786 -0.19844895 45.83177185 -0.22351074 C55.95592478 -0.14658588 55.95592478 -0.14658588 59.58447266 2.64453125 C64.35507734 8.52463902 64.14375064 13.65430848 64.13696289 20.97851562 C64.14124802 22.00042496 64.14553314 23.02233429 64.14994812 24.07521057 C64.1556819 26.23283142 64.15619871 28.3904716 64.15185547 30.5480957 C64.14869615 33.84229627 64.17216494 37.13559792 64.19750977 40.4296875 C64.19978297 42.52929575 64.20048616 44.6289064 64.19946289 46.72851562 C64.20867264 47.70993027 64.21788239 48.69134491 64.22737122 49.70249939 C64.19165495 55.00297203 63.95419289 58.92217683 60.83618164 63.41992188 C57.1004678 66.99512646 54.80330372 67.92083547 49.65649414 67.92163086 C48.43172363 67.93101181 47.20695312 67.94039276 45.94506836 67.95005798 C44.63038574 67.93882401 43.31570313 67.92759003 41.96118164 67.91601562 C40.59024987 67.91617072 39.21931766 67.91766149 37.84838867 67.92042542 C34.98018931 67.92180735 32.11249126 67.90928689 29.24438477 67.88647461 C25.57572166 67.85808978 21.90789097 67.86082964 18.23916626 67.87356472 C15.40975894 67.88053387 12.58054259 67.87271868 9.75115967 67.86030769 C7.74321576 67.85362228 5.73524495 67.85792782 3.72729492 67.8624115 C2.50252441 67.84972733 1.27775391 67.83704315 0.01586914 67.82397461 C-1.59698975 67.81587013 -1.59698975 67.81587013 -3.24243164 67.80760193 C-7.47333302 67.24614388 -10.12087519 65.57895337 -12.95141602 62.43334961 C-14.83380721 57.75466365 -14.59117879 53.20152617 -14.56225586 48.20507812 C-14.56656113 46.57233192 -14.56656113 46.57233192 -14.57095337 44.90660095 C-14.57299219 42.60773192 -14.56747513 40.30884548 -14.55493164 38.01000977 C-14.53889164 34.49846411 -14.55477931 30.98807217 -14.57397461 27.4765625 C-14.57199184 25.24023184 -14.56814748 23.0039019 -14.56225586 20.76757812 C-14.56832855 19.72054214 -14.57440125 18.67350616 -14.58065796 17.59474182 C-14.52875161 12.19114673 -14.43819685 7.95942148 -11.16381836 3.41992188 C-7.36819084 0.64346776 -4.66588054 0.0366369 0 0 Z M1.83618164 16.41992188 C1.83618164 28.29992187 1.83618164 40.17992187 1.83618164 52.41992188 C17.01618164 52.41992188 32.19618164 52.41992188 47.83618164 52.41992188 C47.83618164 40.53992188 47.83618164 28.65992188 47.83618164 16.41992188 C32.65618164 16.41992188 17.47618164 16.41992188 1.83618164 16.41992188 Z " fill="#000000" transform="translate(433.163818359375,271.580078125)"/>
<path d="M0 0 C1.22477051 -0.00938095 2.44954102 -0.0187619 3.71142578 -0.02842712 C5.68344971 -0.01157616 5.68344971 -0.01157616 7.6953125 0.00561523 C9.06624427 0.00546014 10.43717648 0.00396937 11.80810547 0.00120544 C14.67630483 -0.00017649 17.54400288 0.01234397 20.41210938 0.03515625 C24.08077248 0.06354108 27.74860317 0.06080121 31.41732788 0.04806614 C34.2467352 0.04109699 37.07595155 0.04891218 39.90533447 0.06132317 C41.91327838 0.06800858 43.92124919 0.06370304 45.92919922 0.05921936 C47.15396973 0.07190353 48.37874023 0.08458771 49.640625 0.09765625 C51.25348389 0.10576073 51.25348389 0.10576073 52.89892578 0.11402893 C56.2443351 0.55797853 58.11225627 1.51842049 60.8203125 3.50170898 C64.66904747 8.84878232 64.27169834 14.48742573 64.25390625 20.81420898 C64.2591481 21.9012915 64.26438995 22.98837402 64.26979065 24.10839844 C64.2761993 26.40127714 64.27488889 28.69418876 64.26635742 30.98706055 C64.25784112 34.48993536 64.28663724 37.99118233 64.31835938 41.49389648 C64.3199714 43.72566683 64.31939382 45.95744006 64.31640625 48.18920898 C64.32764023 49.23310791 64.33887421 50.27700684 64.35044861 51.35253906 C64.293075 57.35363942 63.94722817 61.00473761 59.8203125 65.50170898 C56.47750204 67.651029 53.69976702 67.7691907 49.77001953 67.80810547 C47.93759201 67.83208656 47.93759201 67.83208656 46.06814575 67.85655212 C44.09308548 67.86459618 44.09308548 67.86459618 42.078125 67.87280273 C40.70815943 67.88177471 39.33819483 67.89089666 37.9682312 67.90016174 C35.09842553 67.91663419 32.22873628 67.92434863 29.35888672 67.92724609 C25.69120028 67.9326284 22.02461605 67.97030712 18.35724068 68.01599026 C15.52782244 68.0458126 12.698668 68.05297074 9.86910629 68.05397224 C7.86275242 68.06019533 5.85651376 68.08964025 3.85037231 68.11949158 C-6.30331784 68.06923485 -6.30331784 68.06923485 -9.93017578 65.27929688 C-14.69569552 59.3950644 -14.48725753 54.26843531 -14.48046875 46.94311523 C-14.48475388 45.9212059 -14.489039 44.89929657 -14.49345398 43.84642029 C-14.49918776 41.68879944 -14.49970457 39.53115926 -14.49536133 37.37353516 C-14.49220201 34.07933459 -14.5156708 30.78603294 -14.54101562 27.49194336 C-14.54328883 25.39233511 -14.54399202 23.29272446 -14.54296875 21.19311523 C-14.5521785 20.21170059 -14.56138824 19.23028595 -14.57087708 18.21913147 C-14.53516081 12.91865883 -14.29769875 8.99945403 -11.1796875 4.50170898 C-7.44397366 0.9265044 -5.14680958 0.00079539 0 0 Z M1.8203125 16.50170898 C1.8203125 28.38170898 1.8203125 40.26170898 1.8203125 52.50170898 C17.0003125 52.50170898 32.1803125 52.50170898 47.8203125 52.50170898 C47.8203125 40.62170898 47.8203125 28.74170898 47.8203125 16.50170898 C32.6403125 16.50170898 17.4603125 16.50170898 1.8203125 16.50170898 Z " fill="#000000" transform="translate(29.1796875,271.498291015625)"/>
<path d="M0 0 C0.76313004 -0.00761353 1.52626007 -0.01522705 2.31251526 -0.02307129 C3.92551402 -0.03386975 5.53858269 -0.03672639 7.15161133 -0.03222656 C9.61723709 -0.0312546 12.07974597 -0.07286309 14.54492188 -0.1171875 C16.11327477 -0.12239501 17.68163847 -0.12508269 19.25 -0.125 C19.98552597 -0.14139526 20.72105194 -0.15779053 21.47886658 -0.17468262 C25.25333601 -0.1238343 26.87979367 0.18077993 29.69165039 2.77929688 C31.73701297 6.44716505 31.29863037 8.48274315 30.19140625 12.46875 C29.20140625 13.45875 28.21140625 14.44875 27.19140625 15.46875 C24.22140625 15.46875 21.25140625 15.46875 18.19140625 15.46875 C18.19140625 59.68875 18.19140625 103.90875 18.19140625 149.46875 C20.83140625 149.46875 23.47140625 149.46875 26.19140625 149.46875 C28.62890625 150.53125 28.62890625 150.53125 30.19140625 152.46875 C31.29514003 156.44219161 31.60684208 158.55874772 29.87890625 162.34375 C28.19140625 164.46875 28.19140625 164.46875 26.19140625 165.46875 C23.75741516 165.59158485 21.35309055 165.65706884 18.91796875 165.671875 C18.19781586 165.67757507 17.47766296 165.68327515 16.73568726 165.68914795 C15.21085072 165.69859835 13.68599376 165.70513209 12.16113281 165.70898438 C9.83231813 165.71868373 7.50438849 165.7497024 5.17578125 165.78125 C3.69401566 165.78778087 2.21224375 165.79303101 0.73046875 165.796875 C0.03555328 165.8092218 -0.65936218 165.8215686 -1.37533569 165.83428955 C-4.41623305 165.82033382 -6.5273683 165.62140061 -9.22119141 164.15917969 C-11.75505568 161.46085975 -11.7462471 159.08485581 -11.80859375 155.46875 C-10.46296976 152.52119268 -9.72304831 150.92597728 -6.80859375 149.46875 C-3.83859375 149.46875 -0.86859375 149.46875 2.19140625 149.46875 C2.19140625 105.24875 2.19140625 61.02875 2.19140625 15.46875 C-1.10859375 15.46875 -4.40859375 15.46875 -7.80859375 15.46875 C-10.49609375 13.40625 -10.49609375 13.40625 -11.80859375 10.46875 C-11.75042412 7.0949113 -11.57156374 4.66723056 -9.73803711 1.78710938 C-6.72081619 -0.2745119 -3.53220533 0.0009646 0 0 Z " fill="#000000" transform="translate(26.80859375,-0.46875)"/>
<path d="M0 0 C6.60950796 3.96570478 11.89461391 8.96092633 14.78125 16.21484375 C16.56947914 23.63386585 16.89291125 33.03278942 13.60546875 40.1015625 C8.3906512 48.29876735 2.62134938 52.87621687 -6.5625 55.9375 C-16.70396107 56.80514253 -25.02393717 55.55438698 -33.3125 49.4375 C-39.75783975 43.31366176 -42.91167958 35.5477202 -43.1875 26.75 C-42.74168288 17.7444942 -39.78273302 11.26142949 -33.58203125 4.734375 C-24.49126543 -3.3541207 -11.12126081 -5.11068626 0 0 Z M-25.9375 20.75 C-27.40045646 25.87034763 -27.24842776 29.59104922 -24.875 34.25 C-21.30020791 38.4044881 -19.12473989 39.76391779 -13.625 40.375 C-9.3474487 40.19744127 -6.82833542 38.74763746 -3.5625 35.9375 C-0.45817789 32.31579088 0.06563077 28.87115886 -0.06640625 24.2265625 C-0.93841474 20.20296427 -3.52048406 17.58547243 -6.5625 14.9375 C-14.37312442 11.03218779 -21.09969694 14.37289597 -25.9375 20.75 Z " fill="#000000" transform="translate(216.5625,2.0625)"/>
<path d="M0 0 C1.43898651 -0.01226624 1.43898651 -0.01226624 2.90704346 -0.02478027 C6.09646977 -0.0496876 9.28585144 -0.0661636 12.4753418 -0.08056641 C13.56165579 -0.08589008 14.64796978 -0.09121376 15.76720238 -0.09669876 C21.51650666 -0.12345313 27.26578905 -0.14282099 33.01513672 -0.15722656 C38.96413054 -0.17388301 44.91257128 -0.21866304 50.86135578 -0.26959801 C55.42606772 -0.30319928 59.99064726 -0.31479622 64.55547142 -0.32045364 C66.7487937 -0.32718549 68.94210669 -0.3424573 71.13530922 -0.36634445 C74.20264801 -0.39784665 77.26848045 -0.39805505 80.3359375 -0.390625 C81.24570847 -0.40703033 82.15547943 -0.42343567 83.09281921 -0.44033813 C89.21802032 -0.37946712 89.21802032 -0.37946712 92.46134949 2.5027771 C94.37252869 6.17323552 93.95487742 8.25873034 92.86206055 12.19287109 C91.31780284 14.19329178 90.45660399 15.07516379 87.95517731 15.57039452 C87.2317791 15.57152559 86.50838089 15.57265667 85.76306152 15.57382202 C84.51387688 15.58651123 84.51387688 15.58651123 83.23945618 15.59945679 C82.32923203 15.59338409 81.41900787 15.5873114 80.48120117 15.58105469 C79.51997849 15.58631165 78.5587558 15.5915686 77.56840515 15.59698486 C74.38487593 15.61020973 71.20184502 15.60143784 68.01831055 15.59130859 C65.81017968 15.59332861 63.60204947 15.59623944 61.3939209 15.6000061 C56.76360733 15.60443283 52.13346725 15.59798707 47.50317383 15.58398438 C41.56097861 15.56689244 35.61918987 15.57673173 29.67700958 15.59470177 C25.1166069 15.6055301 20.55630095 15.60209761 15.99589539 15.59431839 C13.8045802 15.59231376 11.6132563 15.59478484 9.42195129 15.60175705 C6.36203668 15.60935578 3.30278502 15.59778919 0.24291992 15.58105469 C-0.66730423 15.58712738 -1.57752838 15.59320007 -2.51533508 15.59945679 C-3.34812485 15.59099731 -4.18091461 15.58253784 -5.03894043 15.57382202 C-6.12403774 15.57212541 -6.12403774 15.57212541 -7.23105621 15.57039452 C-9.7193831 15.07775728 -10.58883216 14.16832944 -12.13793945 12.19287109 C-13.26097079 8.502911 -13.47532792 6.88298387 -11.76293945 3.38037109 C-8.53805261 -0.96082273 -5.12175733 0.02382331 0 0 Z " fill="#000000" transform="translate(183.137939453125,496.80712890625)"/>
<path d="M0 0 C0.83278976 -0.00845947 1.66557953 -0.01691895 2.52360535 -0.02563477 C3.4338295 -0.01956207 4.34405365 -0.01348938 5.28186035 -0.00723267 C6.24308304 -0.01248962 7.20430573 -0.01774658 8.19465637 -0.02316284 C11.37818559 -0.03638771 14.5612165 -0.02761582 17.74475098 -0.01748657 C19.95288184 -0.01950659 22.16101205 -0.02241742 24.36914062 -0.02618408 C28.99945419 -0.03061081 33.62959427 -0.02416505 38.2598877 -0.01016235 C44.20208291 0.00692958 50.14387165 -0.00290971 56.08605194 -0.02087975 C60.64645463 -0.03170808 65.20676057 -0.02827559 69.76716614 -0.02049637 C71.95848132 -0.01849174 74.14980522 -0.02096282 76.34111023 -0.02793503 C79.40102484 -0.03553376 82.46027651 -0.02396717 85.5201416 -0.00723267 C86.43036575 -0.01330536 87.3405899 -0.01937805 88.27839661 -0.02563477 C89.52758125 -0.01294556 89.52758125 -0.01294556 90.80200195 0 C91.88709927 0.00169662 91.88709927 0.00169662 92.99411774 0.00342751 C95.48244462 0.49606474 96.35189369 1.40549258 97.90100098 3.38095093 C99.02403231 7.07091102 99.23838945 8.69083815 97.52600098 12.19345093 C95.90100098 14.38095093 95.90100098 14.38095093 94.90100098 15.38095093 C91.84800869 15.50293564 88.81726504 15.55961572 85.76306152 15.57382202 C84.80373718 15.58199951 83.84441284 15.590177 82.85601807 15.59860229 C79.66659175 15.62350962 76.47721008 15.63998562 73.28771973 15.65438843 C72.20140574 15.6597121 71.11509174 15.66503578 69.99585915 15.67052078 C64.24655486 15.69727515 58.49727248 15.71664302 52.7479248 15.73104858 C46.79893099 15.74770504 40.85049024 15.79248506 34.90170574 15.84342003 C30.3369938 15.8770213 25.77241426 15.88861824 21.2075901 15.89427567 C19.01426782 15.90100751 16.82095483 15.91627933 14.6277523 15.94016647 C11.56041352 15.97166867 8.49458107 15.97187707 5.42712402 15.96444702 C4.51735306 15.98085236 3.60758209 15.99725769 2.67024231 16.01416016 C-3.4549588 15.95328914 -3.4549588 15.95328914 -6.69828796 13.07104492 C-8.60946717 9.4005865 -8.1918159 7.31509168 -7.09899902 3.38095093 C-4.93140658 0.57306677 -3.50452182 0.00547953 0 0 Z " fill="#000000" transform="translate(23.0989990234375,496.6190490722656)"/>
<path d="M0 0 C0.95961639 -0.00861557 1.91923279 -0.01723114 2.90792847 -0.02610779 C6.08675955 -0.04884986 9.2647149 -0.04201336 12.44360352 -0.03295898 C14.64934045 -0.03819114 16.85507514 -0.04446611 19.06080627 -0.05174255 C23.68696611 -0.06216219 28.31281866 -0.05756307 32.93896484 -0.04296875 C38.87231194 -0.02578449 44.80469038 -0.04926431 50.73792934 -0.08445835 C55.29411762 -0.10640243 59.8500731 -0.10499797 64.40629768 -0.09669304 C66.59400558 -0.09587177 68.78173027 -0.10276847 70.96938896 -0.11746407 C74.02707585 -0.13485296 77.08300921 -0.12041356 80.140625 -0.09765625 C81.04725388 -0.10934845 81.95388275 -0.12104065 82.88798523 -0.13308716 C88.99046537 -0.04051483 88.99046537 -0.04051483 92.23231506 2.84632874 C94.14728537 6.51480498 93.727723 8.59967963 92.63500977 12.53344727 C91.09092664 14.53314318 90.2280079 15.41517725 87.72812653 15.913764 C87.00472832 15.9161939 86.28133011 15.91862379 85.53601074 15.92112732 C84.70322098 15.93103195 83.87043121 15.94093658 83.0124054 15.95114136 C82.10218124 15.94663971 81.19195709 15.94213806 80.25415039 15.9375 C78.81231636 15.94779488 78.81231636 15.94779488 77.34135437 15.95829773 C74.15784008 15.97662851 70.9748156 15.97271957 67.79125977 15.96704102 C65.58312824 15.97159949 63.37499814 15.97690406 61.16687012 15.98292542 C56.5365625 15.99186865 51.90642725 15.9894192 47.27612305 15.97949219 C41.33384442 15.96799566 35.39215941 15.98821872 29.4499588 16.01740932 C24.88954878 16.03572821 20.32928217 16.03548756 15.7688446 16.0297718 C13.57752143 16.02961809 11.38618884 16.03570355 9.19490051 16.04806328 C6.13484098 16.06289152 3.07589316 16.05235649 0.01586914 16.03515625 C-1.34946709 16.0496582 -1.34946709 16.0496582 -2.74238586 16.06445312 C-8.84265225 15.99241711 -8.84265225 15.99241711 -11.42785645 13.72084045 C-12.80919857 10.49660674 -12.73621939 7.99825273 -12.36499023 4.53344727 C-9.99782314 -0.98098439 -5.21878931 -0.03748096 0 0 Z " fill="#000000" transform="translate(338.364990234375,496.466552734375)"/>
<path d="M0 0 C0.78761719 -0.00630432 1.57523438 -0.01260864 2.38671875 -0.019104 C3.64935547 -0.01303131 3.64935547 -0.01303131 4.9375 -0.00683594 C5.81019531 -0.00874939 6.68289062 -0.01066284 7.58203125 -0.01263428 C9.42448211 -0.01399338 11.26694262 -0.01031612 13.109375 -0.00195312 C15.92730243 0.00875033 18.74459236 -0.00185766 21.5625 -0.01464844 C23.35416807 -0.01332679 25.14583575 -0.0107643 26.9375 -0.00683594 C27.77925781 -0.0108844 28.62101562 -0.01493286 29.48828125 -0.019104 C30.66970703 -0.00964752 30.66970703 -0.00964752 31.875 0 C32.90947266 0.00238678 32.90947266 0.00238678 33.96484375 0.00482178 C37.10512696 0.40911381 39.30233625 1.44214995 41.25 3.94628906 C42.26672829 7.3661933 41.81031149 9.8298868 40.9375 13.25878906 C39.14909985 15.3220067 37.69162744 16.15269285 34.98046875 16.53411865 C32.48182484 16.65730531 30.00164532 16.67438256 27.5 16.65722656 C26.5829126 16.66009674 25.6658252 16.66296692 24.72094727 16.66592407 C22.78433616 16.66796317 20.84770438 16.66244407 18.91113281 16.64990234 C15.9480989 16.63384649 12.98642902 16.64975623 10.0234375 16.66894531 C8.14062199 16.66696285 6.25780733 16.66311912 4.375 16.65722656 C3.04674194 16.6663356 3.04674194 16.6663356 1.69165039 16.67562866 C-4.39032765 16.60613853 -4.39032765 16.60613853 -7.59765625 14.94873047 C-9.93747747 12.24935673 -9.94010348 9.74708985 -10.0625 6.25878906 C-9.25489635 3.54230407 -8.66345793 2.61687187 -6.234375 1.16949463 C-3.9598551 0.21574824 -2.44960226 0.00565183 0 0 Z " fill="#000000" transform="translate(25.0625,459.7412109375)"/>
<path d="M0 0 C0.87173859 -0.00428513 1.74347717 -0.00857025 2.64163208 -0.01298523 C4.48585136 -0.01872786 6.33009329 -0.01922928 8.17431641 -0.01489258 C10.99030446 -0.01173836 13.80523605 -0.03517213 16.62109375 -0.06054688 C18.41406118 -0.06282051 20.20703142 -0.06352307 22 -0.0625 C22.83973358 -0.07170975 23.67946716 -0.08091949 24.54464722 -0.09040833 C29.22257352 -0.05356089 32.33729458 0.25194556 36.1328125 3.30078125 C37.015625 5.16796875 37.015625 5.16796875 37.2578125 7.17578125 C37.36351562 7.83320313 37.46921875 8.490625 37.578125 9.16796875 C36.83009552 12.75063628 34.97251531 14.07389566 32.1328125 16.30078125 C28.95160179 17.02469724 25.84908696 16.97865489 22.59765625 16.9296875 C21.22414757 16.93330544 21.22414757 16.93330544 19.82289124 16.93699646 C17.8922186 16.93601924 15.96151752 16.92265541 14.03100586 16.89770508 C11.07634403 16.86335138 8.12466664 16.87706306 5.16992188 16.89648438 C3.29165394 16.88958689 1.41339372 16.87991539 -0.46484375 16.8671875 C-1.34721207 16.87214737 -2.22958038 16.87710724 -3.13868713 16.88221741 C-9.24378809 16.76494571 -9.24378809 16.76494571 -12.39624023 14.41772461 C-14.15036427 11.8932417 -14.79197388 10.38453951 -14.8671875 7.30078125 C-11.55733001 0.18458764 -7.2180624 -0.00779656 0 0 Z " fill="#000000" transform="translate(184.8671875,459.69921875)"/>
<path d="M0 0 C0.89110474 -0.00619858 1.78220947 -0.01239716 2.70031738 -0.01878357 C4.57966014 -0.0258705 6.45906582 -0.02272741 8.33837891 -0.01000977 C11.2098357 0.00386318 14.07803664 -0.03023763 16.94921875 -0.06835938 C18.77864663 -0.06931057 20.60807858 -0.0674517 22.4375 -0.0625 C23.29283325 -0.07575821 24.1481665 -0.08901642 25.02941895 -0.10267639 C29.40504733 -0.03449552 31.19004603 0.15752656 34.75976562 2.91821289 C36.71875 5.56640625 36.71875 5.56640625 37.34375 8.56640625 C36.47966913 12.71399442 35.07111155 13.98727529 31.71875 16.56640625 C28.53618816 17.28561238 25.43545397 17.24428635 22.18359375 17.1953125 C20.81008507 17.19893044 20.81008507 17.19893044 19.40882874 17.20262146 C17.4781561 17.20164424 15.54745502 17.18828041 13.61694336 17.16333008 C10.66228153 17.12897638 7.71060414 17.14268806 4.75585938 17.16210938 C2.87759144 17.15521189 0.99933122 17.14554039 -0.87890625 17.1328125 C-1.76127457 17.13777237 -2.64364288 17.14273224 -3.55274963 17.14784241 C-9.66122473 17.0305059 -9.66122473 17.0305059 -12.83349609 14.65600586 C-14.390817 12.40826393 -14.84904329 11.27656958 -14.84375 8.56640625 C-14.86566406 7.90640625 -14.88757813 7.24640625 -14.91015625 6.56640625 C-12.74921533 -0.3056543 -5.94656167 -0.03448266 0 0 Z " fill="#000000" transform="translate(340.28125,459.43359375)"/>
</svg>
